# xmcd
#
# Track frame offsets:
# 150
# 19852
# 42447
# 65190
# 95110
# 116750
# 141145
# 165765
# 189540
# 212175
# 230815
# 259100
# 283070
# 303787
# 324960
#
# Disc length: 4535 seconds
#
#
# Revision: 8
# Processed by: cddbd v1.5.1PL2 Copyright (c) Steve Scherf et al.
# Submitted via: FreeRIP 2.942 
#
DISCID=de11b50f
DTITLE=Kenny G - Breathless
DYEAR=1992
DGENRE=Jazz
TTITLE0=The Joy of Life
TTITLE1=Forever in Love
TTITLE2=In the Rain
TTITLE3=Sentimental
TTITLE4=By the Time This Night Is over
TTITLE5=End of the Night
TTITLE6=Alone
TTITLE7=Morning
TTITLE8=Even If My Heart Would Break
TTITLE9=G-Bop
TTITLE10=Sister Rose
TTITLE11=A Year ago
TTITLE12=Homeland
TTITLE13=Jasmine Flower
TTITLE14=Wedding Song
EXTD=YEAR: 1992
EXTT0=
EXTT1=
EXTT2=
EXTT3=
EXTT4=
EXTT5=
EXTT6=
EXTT7=
EXTT8=
EXTT9=
EXTT10=
EXTT11=
EXTT12=
EXTT13=
EXTT14=
PLAYORDER=
